<svg width="24" height="24" viewBox="0 0 24 24" fill="none" xmlns="http://www.w3.org/2000/svg">
<path d="M15.9091 12.123L24.0001 17.238V6.79199L15.9091 12.123Z" fill="#E84A11"/>
<path d="M0 6.79199V17.238L8.091 12.123L0 6.79199Z" fill="#E84A11"/>
<path d="M22.5 3.75H1.50004C0.751544 3.75 0.157544 4.308 0.0450439 5.0265L12 12.903L23.955 5.0265C23.8425 4.308 23.2485 3.75 22.5 3.75Z" fill="#E84A11"/>
<path d="M14.535 13.0291L12.4125 14.4271C12.2865 14.5096 12.144 14.5501 12 14.5501C11.856 14.5501 11.7135 14.5096 11.5875 14.4271L9.46497 13.0276L0.0479736 18.9841C0.163474 19.6966 0.754474 20.2501 1.49997 20.2501H22.5C23.2455 20.2501 23.8365 19.6966 23.952 18.9841L14.535 13.0291Z" fill="#E84A11"/>
</svg>
